<?xml version="1.0" encoding="UTF-8"?>
<svg id="Layer_1" data-name="Layer 1" xmlns="http://www.w3.org/2000/svg" viewBox="0 0 1729.36 65.18">
  <defs>
    <style>
      .cls-1 {
        fill: #d0c870;
      }
    </style>
  </defs>
  <polygon class="cls-1" points="0 36.48 60.12 28.73 72.36 36.48 60.12 44.09 0 36.48"/>
  <circle class="cls-1" cx="78.53" cy="36.48" r="6.01"/>
  <polygon class="cls-1" points="91.26 36.48 451.08 31.73 464.22 36.48 451.02 41.63 91.26 36.48"/>
  <path class="cls-1" d="M494.05,40.96c-.44,.65-1.12,1.03-1.85,1.11t0,0c-.31,.03-.63,.01-.93-.08,0,0,0,0,0,0h0c-16.44-1.13-33.02,5.84-43.59,19.71,.5-.84,1.02-1.67,1.58-2.49,9.85-14.61,26.01-22.41,42.39-22.23,0,0,0,0,.01,0,.22,0,.44,0,.66,.01,.37,.05,.72,.19,1.05,.4,1.17,.79,1.48,2.38,.69,3.55Z"/>
  <path class="cls-1" d="M523.65,36.6c-.41-.63-1.07-1.01-1.78-1.09t0,0c-.31-.03-.62-.01-.93,.07,0,0,0,0,0,0h0c-16.3,1.05-32.45-5.81-42.4-19.38,.46,.82,.95,1.63,1.47,2.44,9.21,14.28,24.91,21.95,41.13,21.83,0,0,0,0,.01,0,.22,0,.44,0,.66-.01,.36-.05,.72-.18,1.05-.39,1.19-.77,1.55-2.32,.81-3.46Z"/>
  <path class="cls-1" d="M547.67,43.37c-.44,.65-1.12,1.03-1.85,1.11t0,0c-.31,.03-.63,.01-.93-.08,0,0,0,0,0,0h0c-16.44-1.13-33.02,5.84-43.59,19.71,.5-.84,1.02-1.67,1.58-2.49,9.85-14.61,26.01-22.41,42.39-22.23,0,0,0,0,.01,0,.22,0,.44,0,.66,.01,.37,.05,.72,.19,1.05,.4,1.17,.79,1.48,2.38,.69,3.55Z"/>
  <path class="cls-1" d="M577.27,39.01c-.41-.63-1.07-1.01-1.78-1.09t0,0c-.31-.03-.62-.01-.93,.07,0,0,0,0,0,0h0c-16.3,1.05-32.45-5.81-42.4-19.38,.46,.82,.95,1.63,1.47,2.44,9.21,14.28,24.91,21.95,41.13,21.83,0,0,0,0,.01,0,.22,0,.44,0,.66-.01,.36-.05,.72-.18,1.05-.39,1.19-.77,1.55-2.32,.81-3.46Z"/>
  <path class="cls-1" d="M606.05,42.46c-.44,.65-1.12,1.03-1.85,1.11t0,0c-.31,.03-.63,.01-.93-.08,0,0,0,0,0,0h0c-16.44-1.13-33.02,5.84-43.59,19.71,.5-.84,1.02-1.67,1.58-2.49,9.85-14.61,26.01-22.41,42.39-22.23,0,0,0,0,.01,0,.22,0,.44,0,.66,.01,.37,.05,.72,.19,1.05,.4,1.17,.79,1.48,2.38,.69,3.55Z"/>
  <path class="cls-1" d="M635.66,38.1c-.41-.63-1.07-1.01-1.78-1.09t0,0c-.31-.03-.62-.01-.93,.07,0,0,0,0,0,0h0c-16.3,1.05-32.45-5.81-42.4-19.38,.46,.82,.95,1.63,1.47,2.44,9.21,14.28,24.91,21.95,41.13,21.83,0,0,0,0,.01,0,.22,0,.44,0,.66-.01,.36-.05,.72-.18,1.05-.39,1.19-.77,1.55-2.32,.81-3.46Z"/>
  <!-- <path class="cls-1" d="M772.89,15.1c2.63-.1,4.94,1.43,5.97,3.69,.31,.69,.5,1.43,.55,2.22,4.03,14.2,17.35,24.37,32.77,23.81,.14,0,.28-.01,.42-.02-3.68,1.62-7.73,2.58-11.99,2.73-14.71,.53-27.51-8.7-32.16-21.89-.65-1.84-1.14-3.77-1.46-5.76,.66-2.67,3.02-4.69,5.9-4.79Z"/>
  <path class="cls-1" d="M795.94,.54c2.62,.97,4.28,3.41,4.37,6.04,.03,.8-.08,1.61-.36,2.41-1.77,15.59,7.21,30.96,22.59,36.64,.14,.05,.28,.1,.42,.15-4.27,.11-8.64-.58-12.89-2.16-14.67-5.42-23.53-19.66-22.77-34.5,.11-2.08,.4-4.16,.9-6.25,1.73-2.36,4.86-3.39,7.73-2.33Z"/>
  <path class="cls-1" d="M762.75,32.75c1.86-.38,3.7,.43,4.7,1.91,.3,.45,.53,.96,.66,1.52,4.59,9.64,15.31,15.28,26.23,13.03,.1-.02,.2-.04,.3-.07-2.43,1.6-5.2,2.77-8.22,3.39-10.43,2.15-20.66-2.89-25.57-11.73-.69-1.24-1.27-2.55-1.73-3.93,.15-1.98,1.59-3.71,3.63-4.13Z"/> -->
  <path class="cls-1" d="M660.92,44.42c-.44,.65-1.12,1.03-1.85,1.11t0,0c-.31,.03-.63,.01-.93-.08,0,0,0,0,0,0h0c-16.44-1.13-33.02,5.84-43.59,19.71,.5-.84,1.02-1.67,1.58-2.49,9.85-14.61,26.01-22.41,42.39-22.23,0,0,0,0,.01,0,.22,0,.44,0,.66,.01,.37,.05,.72,.19,1.05,.4,1.17,.79,1.48,2.38,.69,3.55Z"/>
  <path class="cls-1" d="M690.53,40.06c-.41-.63-1.07-1.01-1.78-1.09t0,0c-.31-.03-.62-.01-.93,.07,0,0,0,0,0,0h0c-16.3,1.05-32.45-5.81-42.4-19.38,.46,.82,.95,1.63,1.47,2.44,9.21,14.28,24.91,21.95,41.13,21.83,0,0,0,0,.01,0,.22,0,.44,0,.66-.01,.36-.05,.72-.18,1.05-.39,1.19-.77,1.55-2.32,.81-3.46Z"/>
  <path class="cls-1" d="M719.31,43.51c-.44,.65-1.12,1.03-1.85,1.11t0,0c-.31,.03-.63,.01-.93-.08,0,0,0,0,0,0h0c-16.44-1.13-33.02,5.84-43.59,19.71,.5-.84,1.02-1.67,1.58-2.49,9.85-14.61,26.01-22.41,42.39-22.23,0,0,0,0,.01,0,.22,0,.44,0,.66,.01,.37,.05,.72,.19,1.05,.4,1.17,.79,1.48,2.38,.69,3.55Z"/>
  <path class="cls-1" d="M748.92,39.15c-.41-.63-1.07-1.01-1.78-1.09t0,0c-.31-.03-.62-.01-.93,.07,0,0,0,0,0,0h0c-16.3,1.05-32.45-5.81-42.4-19.38,.46,.82,.95,1.63,1.47,2.44,9.21,14.28,24.91,21.95,41.13,21.83,0,0,0,0,.01,0,.22,0,.44,0,.66-.01,.36-.05,.72-.18,1.05-.39,1.19-.77,1.55-2.32,.81-3.46Z"/>
  <polygon class="cls-1" points="1729.36 36.22 1669.14 28.47 1656.88 36.22 1669.14 43.83 1729.36 36.22"/>
  <ellipse class="cls-1" cx="1650.7" cy="36.22" rx="6.02" ry="6.01"/>
  <polygon class="cls-1" points="1637.95 36.22 1277.54 31.47 1264.38 36.22 1277.6 41.37 1637.95 36.22"/>
  <path class="cls-1" d="M1234.5,40.7c.44,.65,1.13,1.03,1.85,1.11t0,0c.31,.03,.63,.01,.94-.08,0,0,0,0,0,0h0c16.47-1.13,33.07,5.84,43.66,19.71-.5-.84-1.02-1.67-1.58-2.49-9.87-14.61-26.05-22.41-42.46-22.23,0,0,0,0-.01,0-.22,0-.45,0-.67,.01-.37,.05-.72,.19-1.05,.4-1.17,.79-1.48,2.38-.69,3.55Z"/>
  <path class="cls-1" d="M1204.84,36.34c.41-.63,1.08-1.01,1.79-1.09t0,0c.31-.03,.62-.01,.93,.07,0,0,0,0,0,0h0c16.33,1.05,32.5-5.81,42.47-19.38-.46,.82-.95,1.63-1.47,2.44-9.23,14.28-24.95,21.95-41.19,21.83,0,0,0,0-.01,0-.22,0-.44,0-.66-.01-.36-.05-.72-.18-1.05-.39-1.19-.77-1.55-2.32-.81-3.46Z"/>
  <path class="cls-1" d="M1180.79,43.11c.44,.65,1.13,1.03,1.85,1.11t0,0c.31,.03,.63,.01,.94-.08,0,0,0,0,0,0h0c16.47-1.13,33.07,5.84,43.66,19.71-.5-.84-1.02-1.67-1.58-2.49-9.87-14.61-26.05-22.41-42.46-22.23,0,0,0,0-.01,0-.22,0-.45,0-.67,.01-.37,.05-.72,.19-1.05,.4-1.17,.79-1.48,2.38-.69,3.55Z"/>
  <path class="cls-1" d="M1151.14,38.75c.41-.63,1.08-1.01,1.79-1.09t0,0c.31-.03,.62-.01,.93,.07,0,0,0,0,0,0h0c16.33,1.05,32.5-5.81,42.47-19.38-.46,.82-.95,1.63-1.47,2.44-9.23,14.28-24.95,21.95-41.19,21.83,0,0,0,0-.01,0-.22,0-.44,0-.66-.01-.36-.05-.72-.18-1.05-.39-1.19-.77-1.55-2.32-.81-3.46Z"/>
  <path class="cls-1" d="M1122.31,42.2c.44,.65,1.13,1.03,1.85,1.11t0,0c.31,.03,.63,.01,.94-.08,0,0,0,0,0,0h0c16.47-1.13,33.07,5.84,43.66,19.71-.5-.84-1.02-1.67-1.58-2.49-9.87-14.61-26.05-22.41-42.46-22.23,0,0,0,0-.01,0-.22,0-.45,0-.67,.01-.37,.05-.72,.19-1.05,.4-1.17,.79-1.48,2.38-.69,3.55Z"/>
  <path class="cls-1" d="M1092.65,37.84c.41-.63,1.08-1.01,1.79-1.09t0,0c.31-.03,.62-.01,.93,.07,0,0,0,0,0,0h0c16.33,1.05,32.5-5.81,42.47-19.38-.46,.82-.95,1.63-1.47,2.44-9.23,14.28-24.95,21.95-41.19,21.83,0,0,0,0-.01,0-.22,0-.44,0-.66-.01-.36-.05-.72-.18-1.05-.39-1.19-.77-1.55-2.32-.81-3.46Z"/>
  <!-- <path class="cls-1" d="M955.2,14.84c-2.64-.1-4.95,1.43-5.98,3.69-.31,.69-.5,1.43-.55,2.22-4.04,14.2-17.38,24.37-32.82,23.81-.14,0-.28-.01-.42-.02,3.69,1.62,7.74,2.58,12.01,2.73,14.74,.53,27.56-8.7,32.22-21.89,.65-1.84,1.14-3.77,1.46-5.76-.66-2.67-3.03-4.69-5.91-4.79Z"/>
  <path class="cls-1" d="M931.8,.42c-2.67,.98-4.35,3.46-4.45,6.13-.03,.81,.08,1.64,.36,2.45,1.8,15.84-7.34,31.45-22.99,37.22-.14,.05-.29,.11-.43,.15,4.35,.11,8.79-.59,13.12-2.19,14.93-5.5,23.94-19.97,23.17-35.05-.11-2.11-.41-4.23-.91-6.35-1.76-2.39-4.95-3.44-7.87-2.36Z"/>
  <path class="cls-1" d="M965.36,32.49c-1.87-.38-3.7,.43-4.71,1.91-.31,.45-.53,.96-.66,1.52-4.59,9.64-15.33,15.28-26.28,13.03-.1-.02-.2-.04-.3-.07,2.43,1.6,5.21,2.77,8.23,3.39,10.44,2.15,20.7-2.89,25.61-11.73,.69-1.24,1.27-2.55,1.73-3.93-.15-1.98-1.59-3.71-3.64-4.13Z"/> -->
  <path class="cls-1" d="M1067.35,44.16c.44,.65,1.13,1.03,1.85,1.11t0,0c.31,.03,.63,.01,.94-.08,0,0,0,0,0,0h0c16.47-1.13,33.07,5.84,43.66,19.71-.5-.84-1.02-1.67-1.58-2.49-9.87-14.61-26.05-22.41-42.46-22.23,0,0,0,0-.01,0-.22,0-.45,0-.67,.01-.37,.05-.72,.19-1.05,.4-1.17,.79-1.48,2.38-.69,3.55Z"/>
  <path class="cls-1" d="M1037.69,39.8c.41-.63,1.08-1.01,1.79-1.09t0,0c.31-.03,.62-.01,.93,.07,0,0,0,0,0,0h0c16.33,1.05,32.5-5.81,42.47-19.38-.46,.82-.95,1.63-1.47,2.44-9.23,14.28-24.95,21.95-41.19,21.83,0,0,0,0-.01,0-.22,0-.44,0-.66-.01-.36-.05-.72-.18-1.05-.39-1.19-.77-1.55-2.32-.81-3.46Z"/>
  <path class="cls-1" d="M1008.86,43.25c.44,.65,1.13,1.03,1.85,1.11t0,0c.31,.03,.63,.01,.94-.08,0,0,0,0,0,0h0c16.47-1.13,33.07,5.84,43.66,19.71-.5-.84-1.02-1.67-1.58-2.49-9.87-14.61-26.05-22.41-42.46-22.23,0,0,0,0-.01,0-.22,0-.45,0-.67,.01-.37,.05-.72,.19-1.05,.4-1.17,.79-1.48,2.38-.69,3.55Z"/>
  <path class="cls-1" d="M979.21,38.89c.41-.63,1.08-1.01,1.79-1.09t0,0c.31-.03,.62-.01,.93,.07,0,0,0,0,0,0h0c16.33,1.05,32.5-5.81,42.47-19.38-.46,.82-.95,1.63-1.47,2.44-9.23,14.28-24.95,21.95-41.19,21.83,0,0,0,0-.01,0-.22,0-.44,0-.66-.01-.36-.05-.72-.18-1.05-.39-1.19-.77-1.55-2.32-.81-3.46Z"/>
</svg>